<svg width="32" height="32" viewBox="0 0 32 32" fill="none" xmlns="http://www.w3.org/2000/svg">
<rect width="32" height="32" fill="white"/>
<path d="M22.2848 23.9466H24.0169L25 25H16.6086V23.9466H18.4928C17.9731 21.2427 14.0603 21.2469 13.5189 23.9466H15.3329V25L7 24.9421C7.08428 24.8032 7.65932 24.2206 7.9363 23.9466H9.65669L15.3329 7.08105V20.7981C15.753 20.7519 16.1769 20.7515 16.597 20.7968L16.6086 20.7981V7L22.2848 23.9466ZM13.1906 17.4746H13.1896L13.1835 17.4993L13.0781 17.866L13.0711 17.8905L12.1581 21.0694L12.144 21.1126H12.1457L11.8333 22.2005L12.3143 21.8927C12.8556 21.5464 13.4496 21.2884 14.0737 21.1285L14.099 21.122V14.5516L14.0327 14.5424L13.1906 17.4746ZM17.8878 14.5516V21.122L17.9131 21.1285C18.537 21.2884 19.1345 21.5516 19.6759 21.898L20.1533 22.1999L20.0067 21.6894L20.0061 21.6872L19.9992 21.6627L18.9484 18.0046L18.9155 17.866H18.9087L18.821 17.5611L18.8029 17.4746H18.7962L17.9541 14.5424L17.8878 14.5516ZM19.9844 21.8562L20.0396 22.0487L19.7353 21.8562H19.9844ZM12.2373 21.8624L11.9473 22.0479L12.0023 21.8566L12.2373 21.8624ZM19.8792 21.4902L19.9288 21.6627H19.4144C19.3067 21.602 19.1972 21.5444 19.0861 21.4902H19.8792ZM12.8957 21.4901C12.7845 21.5442 12.6749 21.6018 12.5671 21.6626H12.058L12.1076 21.4901H12.8957ZM19.7708 21.1127L19.821 21.2875H18.672L18.6679 21.3049C18.4849 21.2319 18.2984 21.1676 18.109 21.1127H19.7708ZM13.8774 21.1126C13.691 21.1665 13.5075 21.2291 13.3274 21.3001L12.1656 21.2879L12.216 21.1126H13.8774ZM19.67 20.7617L19.7085 20.8956H17.9554V20.7617H19.67ZM14.0314 20.7617V20.8955H12.2783L12.3168 20.7617H14.0314ZM19.554 20.3576L19.6124 20.5612H17.9554V20.3576H19.554ZM14.0314 20.3576V20.5611H12.3744L12.4328 20.3576H14.0314ZM19.4379 19.9535L19.4964 20.1571H17.9554V19.9535H19.4379ZM14.0314 19.9535V20.157H12.4904L12.5489 19.9535H14.0314ZM19.3278 19.57L19.3803 19.753H17.9554V19.57H19.3278ZM14.0314 19.57V19.7529H12.6065L12.659 19.57H14.0314ZM19.2232 19.2058L19.2702 19.3695H17.9554V19.2058H19.2232ZM14.0314 19.2057V19.3695H12.7166L12.7636 19.2057H14.0314ZM19.113 18.8223L19.1656 19.0052H17.9554V18.8223H19.113ZM14.0314 18.8223V19.0052H12.8212L12.8738 18.8223H14.0314ZM19.0084 18.458L19.0554 18.6218H17.9554V18.458H19.0084ZM14.0314 18.458V18.6217H12.9314L12.9784 18.458H14.0314ZM18.896 18.0666L18.9509 18.2578L17.9554 18.2661V18.0666H18.896ZM14.0314 18.0666V18.2575H13.036L13.0908 18.0666H14.0314ZM18.7835 17.6751L18.8384 17.866H17.9554V17.6751H18.7835ZM14.0314 17.6751V17.866H13.1484L13.2033 17.6751H14.0314ZM14.0314 17.3407V17.4746H13.2608L13.2993 17.3407H14.0314ZM18.6875 17.3407L18.726 17.4746H17.9554V17.3407H18.6875ZM14.0314 16.9932V17.1402H13.3569L13.3991 16.9932H14.0314ZM18.5877 16.9932L18.6299 17.1402H17.9554V16.9932H18.5877ZM14.0314 16.7926H13.4567L13.5081 16.6135L14.0314 16.6092V16.7926ZM18.4787 16.6135L18.5301 16.7926H17.9554V16.6092L18.4787 16.6135ZM14.0314 16.2247V16.4084H13.5671L13.6198 16.2247H14.0314ZM18.367 16.2247L18.4197 16.4084H17.9554V16.2247H18.367ZM14.0314 15.8922V16.0244H13.6773L13.7153 15.8922H14.0314ZM18.2715 15.8922L18.3095 16.0244H17.9554V15.8922H18.2715ZM14.0314 15.523V15.6552H13.7834L13.8214 15.523H14.0314ZM18.1654 15.523L18.2034 15.6552H17.9554V15.523H18.1654ZM14.0314 15.1548V15.286H13.8894L13.9271 15.1548H14.0314ZM18.0597 15.1548L18.0974 15.286H17.9554V15.1548H18.0597ZM14.0314 14.9539H13.9848L14.0314 14.7916V14.9539ZM18.002 14.9539H17.9554V14.7916L18.002 14.9539Z" fill="#080D3F"/>
</svg>
