<svg width="234" height="76" viewBox="0 0 234 76" fill="none" xmlns="http://www.w3.org/2000/svg">
<path d="M53.3628 57.4251H57.5969L60 60H39.4877V57.4251H44.0936C42.823 50.8155 33.2585 50.8256 31.935 57.4251H36.3694V60L16 59.8585C16.206 59.519 17.6117 58.0948 18.2887 57.4251H22.4941L36.3694 16.1981V49.7287C37.3962 49.6158 38.4324 49.6147 39.4594 49.7256L39.4877 49.7287V16L53.3628 57.4251ZM31.1325 41.6045H31.13L31.1151 41.665L30.8577 42.5614H30.8573L30.8405 42.6213L28.6087 50.3919L28.5743 50.4976H28.5784L27.8146 53.1569L28.9906 52.4045C30.3137 51.5579 31.7658 50.9272 33.2912 50.5363L33.3531 50.5204V34.4594L33.191 34.4371L31.1325 41.6045ZM42.6146 34.4594V50.5206L42.6765 50.5364C44.2017 50.9273 45.6621 51.5706 46.9854 52.4173L46.9857 52.4176L48.1526 53.1553L47.7941 51.9073L47.7927 51.9021L47.7759 51.8421H47.7754L45.2072 42.9002L45.1268 42.5614H45.11L44.8959 41.816L44.8516 41.6045H44.8352L42.7767 34.4371L42.6146 34.4594ZM47.7396 52.3153L47.8746 52.7856L47.1308 52.3153H47.7396ZM28.8023 52.3304L28.0935 52.7839L28.2278 52.3162L28.8023 52.3304ZM47.4826 51.4204L47.6037 51.8421H46.3463C46.0831 51.6937 45.8155 51.553 45.5437 51.4204H47.4826ZM30.4118 51.4202C30.1399 51.5526 29.872 51.6932 29.6085 51.8419H28.3641L28.4851 51.4202H30.4118ZM47.2176 50.4977L47.3403 50.9249H44.5316L44.5216 50.9676C44.0743 50.789 43.6182 50.6319 43.1554 50.4977H47.2176ZM32.8114 50.4976C32.3557 50.6292 31.9071 50.7822 31.4671 50.9559L28.6271 50.9259L28.7501 50.4976H32.8114ZM46.9711 49.6397L47.0651 49.967H42.7799V49.6397H46.9711ZM33.1879 49.6396V49.9668H28.9026L28.9966 49.6396H33.1879ZM46.6874 48.652L46.8304 49.1495H42.7799V48.652H46.6874ZM33.1879 48.6518V49.1494H29.1374L29.2803 48.6518H33.1879ZM46.4037 47.6641L46.5467 48.1617H42.7799V47.6641H46.4037ZM33.1879 47.664V48.1616H29.4211L29.5639 47.664H33.1879ZM46.1345 46.7268L46.263 47.1739H42.7799V46.7268H46.1345ZM33.1879 46.7267V47.1738H29.7048L29.8332 46.7267H33.1879ZM45.8788 45.8363L45.9938 46.2366H42.7799V45.8363H45.8788ZM33.1879 45.8362V46.2365H29.974L30.0889 45.8362H33.1879ZM45.6096 44.8989L45.738 45.3461H42.7799V44.8989H45.6096ZM33.1879 44.8989V45.346H30.2297L30.3581 44.8989H33.1879ZM45.3539 44.0085L45.4689 44.4087H42.7799V44.0085H45.3539ZM33.1879 44.0085V44.4087H30.4989L30.6138 44.0085H33.1879ZM45.0791 43.0516L45.2132 43.519L42.7799 43.5393V43.0516H45.0791ZM33.1879 43.0516V43.5182H30.7547L30.8887 43.0516H33.1879ZM44.8042 42.0948L44.9383 42.5614H42.7799V42.0948H44.8042ZM33.1879 42.0947V42.5614H31.0294L31.1635 42.0947H33.1879ZM33.1879 41.2773V41.6045H31.3043L31.3982 41.2773H33.1879ZM44.5695 41.2773L44.6635 41.6045H42.7799V41.2773H44.5695ZM33.1879 40.4278V40.7871H31.539L31.6423 40.4278H33.1879ZM44.3255 40.4279L44.4286 40.7871H42.7799V40.4279H44.3255ZM33.1879 39.9376H31.783L31.9087 39.4996L33.1879 39.4892V39.9376ZM44.0589 39.4996L44.1847 39.9376H42.7799V39.4892L44.0589 39.4996ZM33.1879 38.5492V38.9983H32.0528L32.1818 38.5492H33.1879ZM43.7859 38.5493L43.9149 38.9983H42.7799V38.5493H43.7859ZM33.1879 37.7364V38.0596H32.3224L32.4152 37.7364H33.1879ZM43.5525 37.7364L43.6453 38.0596H42.7799V37.7364H43.5525ZM33.1879 36.8339V37.1571H32.5816L32.6744 36.8339H33.1879ZM43.2933 36.8339L43.3862 37.1571H42.7799V36.8339H43.2933ZM33.1879 35.934V36.2545H32.8408L32.9328 35.934H33.1879ZM43.0348 35.934L43.127 36.2545H42.7799V35.934H43.0348ZM33.1879 35.443H33.0739L33.1879 35.046V35.443ZM42.8938 35.443H42.7799V35.046L42.8938 35.443Z" fill="#080D3F"/>
<path d="M77.5448 16C78.5613 16 79.5371 16.1712 80.4723 16.5136C81.4278 16.8359 82.2817 17.279 83.0339 17.8429C83.7861 18.4069 84.4061 19.0615 84.894 19.8067C85.3819 20.552 85.6869 21.3476 85.8089 22.1935C85.8495 22.3748 85.8495 22.4956 85.8089 22.5561C85.7885 22.6165 85.7174 22.6467 85.5954 22.6467L83.3083 22.828C83.2067 22.8481 83.1355 22.828 83.0948 22.7675C83.0542 22.7071 83.0237 22.6266 83.0034 22.5258C82.7187 21.2368 82.0987 20.1995 81.1432 19.414C80.208 18.6083 79.0391 18.2055 77.6363 18.2055C75.522 18.2055 73.8956 18.9809 72.7572 20.5318C71.6187 22.0827 71.0495 24.4191 71.0495 27.5411C71.0495 30.5623 71.6085 32.8484 72.7267 34.3993C73.8448 35.9502 75.5322 36.7256 77.7888 36.7256C79.2322 36.7256 80.4316 36.3832 81.3871 35.6984C82.363 35.0136 83.1457 33.9159 83.7352 32.4052C83.7962 32.2844 83.9182 32.2441 84.1012 32.2844L85.9003 32.7074C85.9613 32.7275 86.0122 32.7678 86.0528 32.8282C86.0935 32.8886 86.0935 32.9894 86.0528 33.1303C85.8902 33.7144 85.6361 34.2885 85.2905 34.8524C84.9652 35.4164 84.5586 35.9502 84.0707 36.4537C83.5828 36.9371 83.0135 37.3802 82.363 37.783C81.7124 38.1657 80.9907 38.4678 80.1979 38.6894C79.4253 38.911 78.5816 39.0217 77.6668 39.0217C75.6542 39.0217 73.916 38.5585 72.4522 37.632C71.0088 36.7055 69.9008 35.3761 69.1283 33.6439C68.3761 31.9118 68 29.8573 68 27.4807C68 25.104 68.3761 23.0596 69.1283 21.3476C69.9008 19.6154 70.9986 18.2961 72.4217 17.3898C73.8651 16.4633 75.5728 16 77.5448 16Z" fill="#080D3F"/>
<path d="M88.8288 38.7196C88.6865 38.7196 88.5747 38.6894 88.4933 38.629C88.4324 38.5484 88.4019 38.4477 88.4019 38.3268V23.0999C88.4019 22.838 88.5137 22.7071 88.7373 22.7071H90.506C90.7296 22.7071 90.8414 22.8179 90.8414 23.0395V25.0032C90.8414 25.1241 90.8719 25.1946 90.9329 25.2147C90.9939 25.2349 91.0752 25.1946 91.1769 25.0939C91.7054 24.4695 92.2239 23.966 92.7321 23.5833C93.2607 23.1804 93.7892 22.8884 94.3178 22.7071C94.8464 22.5057 95.375 22.405 95.9035 22.405C96.6151 22.405 96.9709 22.5359 96.9709 22.7978V24.6105C96.9709 24.8119 96.8794 24.8925 96.6964 24.8522C96.5134 24.832 96.3 24.8119 96.056 24.7918C95.8324 24.7716 95.5884 24.7616 95.3241 24.7616C94.8769 24.7616 94.3991 24.8623 93.8909 25.0637C93.3827 25.2449 92.9049 25.5068 92.4576 25.8492C92.0307 26.1916 91.675 26.5743 91.3903 26.9973C91.1057 27.4202 90.9634 27.8432 90.9634 28.2662V38.2664C90.9634 38.5685 90.8109 38.7196 90.506 38.7196H88.8288Z" fill="#080D3F"/>
<path d="M104.934 39.0217C103.409 39.0217 102.057 38.6793 100.878 37.9945C99.7189 37.2896 98.8143 36.3228 98.1637 35.0941C97.5335 33.8454 97.2184 32.4153 97.2184 30.804C97.2184 29.1323 97.5437 27.672 98.1942 26.4232C98.8651 25.1543 99.7799 24.1674 100.939 23.4624C102.098 22.7575 103.439 22.405 104.964 22.405C106.509 22.405 107.851 22.7675 108.989 23.4926C110.148 24.1976 111.043 25.1845 111.673 26.4534C112.323 27.7022 112.649 29.1423 112.649 30.7738C112.649 32.3851 112.323 33.8152 111.673 35.0639C111.022 36.2926 110.118 37.2594 108.959 37.9643C107.82 38.6693 106.479 39.0217 104.934 39.0217ZM104.995 37.1184C106.052 37.1184 106.956 36.8666 107.709 36.3631C108.461 35.8394 109.03 35.1042 109.416 34.1576C109.823 33.1908 110.026 32.0427 110.026 30.7134C110.026 29.384 109.823 28.246 109.416 27.2994C109.01 26.3326 108.43 25.5874 107.678 25.0637C106.926 24.54 106.021 24.2782 104.964 24.2782C103.927 24.2782 103.023 24.54 102.25 25.0637C101.477 25.5874 100.878 26.3326 100.451 27.2994C100.044 28.246 99.8409 29.384 99.8409 30.7134C99.8409 32.0226 100.044 33.1606 100.451 34.1273C100.878 35.0941 101.477 35.8394 102.25 36.3631C103.023 36.8666 103.937 37.1184 104.995 37.1184Z" fill="#080D3F"/>
<path d="M124.591 26.242C124.185 25.6377 123.616 25.1442 122.884 24.7616C122.152 24.3789 121.278 24.1875 120.261 24.1875C119.163 24.1875 118.248 24.4191 117.517 24.8824C116.805 25.3457 116.449 25.97 116.449 26.7556C116.449 27.1785 116.612 27.5814 116.937 27.964C117.262 28.3266 117.923 28.669 118.919 28.9913L122.792 30.1393C124.195 30.522 125.201 31.0759 125.811 31.801C126.441 32.5261 126.756 33.362 126.756 34.3086C126.756 35.2553 126.472 36.0811 125.903 36.786C125.333 37.491 124.551 38.0449 123.555 38.4477C122.558 38.8304 121.43 39.0217 120.17 39.0217C118.564 39.0217 117.161 38.7095 115.961 38.0852C114.762 37.4406 113.908 36.645 113.4 35.6984C113.339 35.5977 113.308 35.507 113.308 35.4265C113.308 35.3459 113.359 35.2754 113.461 35.215L114.65 34.5503C114.752 34.4899 114.843 34.4698 114.925 34.4899C115.006 34.4899 115.067 34.5201 115.108 34.5805C115.453 35.1042 115.85 35.5574 116.297 35.9401C116.764 36.3228 117.313 36.6249 117.944 36.8464C118.594 37.068 119.346 37.1788 120.2 37.1788C120.973 37.1586 121.674 37.0479 122.304 36.8464C122.934 36.645 123.433 36.353 123.799 35.9703C124.164 35.5675 124.347 35.1042 124.347 34.5805C124.347 34.0367 124.124 33.5735 123.677 33.1908C123.229 32.7879 122.457 32.4355 121.359 32.1333L118.218 31.2572C116.693 30.8544 115.616 30.3105 114.986 29.6257C114.376 28.9409 114.061 28.1353 114.04 27.2087C114.04 26.242 114.305 25.4061 114.833 24.7011C115.362 23.976 116.094 23.4121 117.029 23.0092C117.984 22.6064 119.072 22.405 120.292 22.405C121.654 22.405 122.863 22.6668 123.92 23.1905C124.998 23.6941 125.811 24.3688 126.36 25.2147C126.421 25.2953 126.452 25.3759 126.452 25.4564C126.452 25.5169 126.411 25.5773 126.33 25.6377L125.049 26.3326C124.967 26.3729 124.886 26.393 124.805 26.393C124.744 26.3729 124.673 26.3225 124.591 26.242Z" fill="#080D3F"/>
<path d="M138.671 26.242C138.265 25.6377 137.695 25.1442 136.964 24.7616C136.232 24.3789 135.358 24.1875 134.341 24.1875C133.243 24.1875 132.328 24.4191 131.597 24.8824C130.885 25.3457 130.529 25.97 130.529 26.7556C130.529 27.1785 130.692 27.5814 131.017 27.964C131.342 28.3266 132.003 28.669 132.999 28.9913L136.872 30.1393C138.275 30.522 139.281 31.0759 139.891 31.801C140.521 32.5261 140.836 33.362 140.836 34.3086C140.836 35.2553 140.552 36.0811 139.983 36.786C139.413 37.491 138.631 38.0449 137.634 38.4477C136.638 38.8304 135.51 39.0217 134.25 39.0217C132.644 39.0217 131.241 38.7095 130.041 38.0852C128.842 37.4406 127.988 36.645 127.48 35.6984C127.419 35.5977 127.388 35.507 127.388 35.4265C127.388 35.3459 127.439 35.2754 127.541 35.215L128.73 34.5503C128.832 34.4899 128.923 34.4698 129.005 34.4899C129.086 34.4899 129.147 34.5201 129.187 34.5805C129.533 35.1042 129.93 35.5574 130.377 35.9401C130.844 36.3228 131.393 36.6249 132.023 36.8464C132.674 37.068 133.426 37.1788 134.28 37.1788C135.053 37.1586 135.754 37.0479 136.384 36.8464C137.014 36.645 137.513 36.353 137.878 35.9703C138.244 35.5675 138.427 35.1042 138.427 34.5805C138.427 34.0367 138.204 33.5735 137.756 33.1908C137.309 32.7879 136.537 32.4355 135.439 32.1333L132.298 31.2572C130.773 30.8544 129.696 30.3105 129.066 29.6257C128.456 28.9409 128.14 28.1353 128.12 27.2087C128.12 26.242 128.384 25.4061 128.913 24.7011C129.442 23.976 130.173 23.4121 131.109 23.0092C132.064 22.6064 133.152 22.405 134.372 22.405C135.734 22.405 136.943 22.6668 138 23.1905C139.078 23.6941 139.891 24.3688 140.44 25.2147C140.501 25.2953 140.531 25.3759 140.531 25.4564C140.531 25.5169 140.491 25.5773 140.41 25.6377L139.129 26.3326C139.047 26.3729 138.966 26.393 138.885 26.393C138.824 26.3729 138.753 26.3225 138.671 26.242Z" fill="#080D3F"/>
<path d="M143.481 38.7196C143.217 38.7196 143.084 38.5887 143.084 38.3268V16.6949C143.084 16.433 143.196 16.3021 143.42 16.3021H145.219C145.443 16.3021 145.555 16.423 145.555 16.6647V24.7313C145.555 24.832 145.575 24.8925 145.616 24.9126C145.656 24.9328 145.727 24.9025 145.829 24.822C146.541 24.2782 147.191 23.825 147.781 23.4624C148.391 23.0999 148.98 22.838 149.549 22.6769C150.139 22.4956 150.779 22.405 151.47 22.405C153.056 22.405 154.266 22.828 155.099 23.6739C155.933 24.4997 156.35 25.6075 156.35 26.9973V38.2362C156.35 38.5585 156.197 38.7196 155.892 38.7196H154.184C154.042 38.7196 153.941 38.6894 153.88 38.629C153.819 38.5484 153.788 38.4477 153.788 38.3268V27.5411C153.788 26.5541 153.534 25.7888 153.026 25.2449C152.517 24.681 151.714 24.399 150.617 24.399C150.027 24.399 149.468 24.4997 148.939 24.7011C148.431 24.8824 147.913 25.1543 147.384 25.5169C146.856 25.8593 146.276 26.3024 145.646 26.8462V38.2664C145.646 38.5685 145.483 38.7196 145.158 38.7196H143.481Z" fill="#080D3F"/>
<path d="M168.638 36.786C167.886 37.5111 167.063 38.065 166.168 38.4477C165.294 38.8304 164.308 39.0217 163.21 39.0217C161.625 39.0217 160.374 38.6189 159.46 37.8132C158.565 37.0076 158.118 35.9502 158.118 34.641C158.118 33.5735 158.423 32.657 159.033 31.8916C159.643 31.1061 160.547 30.4918 161.747 30.0487C162.946 29.5854 164.42 29.3035 166.168 29.2028L168.547 29.0215C168.669 29.0013 168.781 28.9611 168.882 28.9006C168.984 28.8402 169.035 28.7294 169.035 28.5683V27.7526C169.035 26.6649 168.689 25.8089 167.998 25.1845C167.327 24.54 166.412 24.2177 165.254 24.2177C164.359 24.2177 163.546 24.4191 162.814 24.822C162.102 25.2248 161.462 25.8291 160.893 26.6347C160.812 26.7354 160.74 26.8059 160.679 26.8462C160.639 26.8663 160.557 26.8563 160.435 26.816L158.789 26.2722C158.728 26.2319 158.677 26.1815 158.636 26.1211C158.616 26.0607 158.646 25.9499 158.728 25.7888C159.338 24.7414 160.191 23.9156 161.289 23.3114C162.407 22.7071 163.77 22.405 165.376 22.405C166.738 22.405 167.866 22.6165 168.76 23.0395C169.675 23.4423 170.356 24.0365 170.804 24.822C171.271 25.5874 171.505 26.5038 171.505 27.5713V38.2664C171.505 38.4477 171.474 38.5685 171.413 38.629C171.352 38.6894 171.251 38.7196 171.109 38.7196H169.553C169.411 38.7196 169.309 38.6793 169.248 38.5988C169.187 38.498 169.147 38.3772 169.126 38.2362L169.096 36.8464C169.035 36.5645 168.882 36.5443 168.638 36.786ZM169.035 31.0457C169.035 30.7033 168.893 30.5422 168.608 30.5623L166.595 30.7436C165.66 30.7839 164.827 30.9047 164.095 31.1061C163.363 31.2874 162.743 31.5291 162.235 31.8312C161.726 32.1333 161.34 32.4959 161.076 32.9189C160.812 33.3217 160.679 33.795 160.679 34.3388C160.679 35.2251 160.984 35.9199 161.594 36.4235C162.224 36.9069 163.068 37.1486 164.125 37.1486C164.776 37.1486 165.396 37.0378 165.985 36.8162C166.595 36.5745 167.124 36.2724 167.571 35.9099C168.039 35.5272 168.395 35.1344 168.638 34.7316C168.903 34.3288 169.035 33.936 169.035 33.5533V31.0457Z" fill="#080D3F"/>
<path d="M187.275 22.7071C187.418 22.7071 187.519 22.7575 187.58 22.8582C187.641 22.9387 187.641 23.0395 187.58 23.1603L181.39 38.2664C181.288 38.5685 181.055 38.7196 180.689 38.7196H179.591C179.205 38.7196 178.95 38.5786 178.828 38.2966L172.669 23.1603C172.628 23.0395 172.638 22.9387 172.699 22.8582C172.76 22.7575 172.862 22.7071 173.004 22.7071H174.895C175.017 22.7071 175.118 22.7373 175.2 22.7978C175.281 22.838 175.342 22.9186 175.383 23.0395L180.17 34.9129C180.313 35.2956 180.475 35.2855 180.658 34.8827L185.415 23.0395C185.456 22.9186 185.507 22.838 185.568 22.7978C185.649 22.7373 185.751 22.7071 185.873 22.7071H187.275Z" fill="#080D3F"/>
<path d="M190.218 31.7104C190.218 32.6973 190.452 33.6037 190.919 34.4295C191.407 35.2351 192.047 35.8797 192.84 36.3631C193.653 36.8464 194.558 37.0881 195.554 37.0881C196.571 37.0881 197.475 36.8867 198.268 36.4839C199.061 36.0609 199.742 35.4265 200.311 34.5805C200.393 34.5 200.454 34.4597 200.494 34.4597C200.555 34.4395 200.637 34.4496 200.738 34.4899L202.019 35.1244C202.202 35.2251 202.222 35.366 202.08 35.5473C201.531 36.353 200.921 37.0177 200.25 37.5413C199.6 38.0449 198.868 38.4175 198.055 38.6592C197.242 38.9009 196.327 39.0217 195.31 39.0217C193.806 39.0217 192.474 38.6793 191.316 37.9945C190.157 37.3097 189.242 36.353 188.571 35.1244C187.9 33.8957 187.565 32.4757 187.565 30.8644C187.565 29.1121 187.9 27.6116 188.571 26.3628C189.262 25.0939 190.187 24.117 191.346 23.4322C192.525 22.7474 193.836 22.405 195.28 22.405C196.764 22.405 198.055 22.7273 199.153 23.3718C200.25 24.0163 201.104 24.9529 201.714 26.1815C202.324 27.4102 202.629 28.8906 202.629 30.6227C202.629 30.7637 202.609 30.9047 202.568 31.0457C202.548 31.1867 202.416 31.2572 202.172 31.2572H190.492C190.411 31.2572 190.34 31.3075 190.279 31.4082C190.238 31.4888 190.218 31.5895 190.218 31.7104ZM199.549 29.5955C199.773 29.5955 199.915 29.5754 199.976 29.5351C200.037 29.4747 200.067 29.3538 200.067 29.1725C200.067 28.3065 199.874 27.5008 199.488 26.7556C199.122 25.9902 198.583 25.3759 197.872 24.9126C197.181 24.4494 196.337 24.2177 195.341 24.2177C194.243 24.2177 193.318 24.4796 192.566 25.0032C191.814 25.5068 191.244 26.1715 190.858 26.9973C190.472 27.8231 190.279 28.6891 190.279 29.5955H199.549Z" fill="#080D3F"/>
<path d="M205.131 38.7196C204.847 38.7196 204.704 38.5887 204.704 38.3268V23.0999C204.704 22.838 204.816 22.7071 205.04 22.7071H206.869C207.093 22.7071 207.205 22.8179 207.205 23.0395V24.7918C207.205 24.8925 207.225 24.9529 207.266 24.973C207.307 24.9932 207.378 24.963 207.479 24.8824C208.15 24.3587 208.77 23.9156 209.34 23.5531C209.929 23.1704 210.529 22.8884 211.139 22.7071C211.749 22.5057 212.399 22.405 213.09 22.405C214.676 22.405 215.886 22.828 216.719 23.6739C217.573 24.5199 218 25.6176 218 26.967V38.2362C218 38.5585 217.848 38.7196 217.543 38.7196H215.835C215.693 38.7196 215.591 38.6894 215.53 38.629C215.469 38.5484 215.438 38.4477 215.438 38.3268V27.5411C215.438 26.5541 215.184 25.7888 214.676 25.2449C214.168 24.681 213.365 24.399 212.267 24.399C211.677 24.399 211.118 24.4997 210.59 24.7011C210.082 24.8824 209.563 25.1543 209.035 25.5169C208.506 25.8593 207.916 26.3024 207.266 26.8462V38.2664C207.266 38.5685 207.113 38.7196 206.808 38.7196H205.131Z" fill="#080D3F"/>
<path d="M81.3732 48.6425C81.3732 49.6878 81.1409 50.5495 80.6762 51.2276C80.2116 51.9056 79.5761 52.4071 78.7698 52.732C77.9636 53.0569 77.0274 53.2194 75.9615 53.2194H72.4767C72.3537 53.2194 72.2922 53.2829 72.2922 53.4101V59.4703C72.2922 59.6822 72.1897 59.7881 71.9848 59.7881H70.5908C70.4952 59.7881 70.4268 59.7669 70.3859 59.7245C70.3449 59.6822 70.3244 59.6115 70.3244 59.5126V44.3622C70.3244 44.1644 70.4063 44.0655 70.5703 44.0655H75.736C76.8156 44.0655 77.7791 44.2209 78.6264 44.5317C79.4736 44.8425 80.1433 45.3369 80.6352 46.015C81.1272 46.693 81.3732 47.5689 81.3732 48.6425ZM79.3643 48.5789C79.3643 47.8584 79.2072 47.2793 78.8928 46.8414C78.5922 46.4034 78.1617 46.0927 77.6014 45.909C77.0548 45.7112 76.3988 45.6124 75.6335 45.6124H72.5587C72.3811 45.6124 72.2922 45.6971 72.2922 45.8666V51.3759C72.2922 51.5737 72.3537 51.6725 72.4767 51.6725H75.777C76.8566 51.6725 77.7244 51.4253 78.3804 50.9309C79.0363 50.4365 79.3643 49.6525 79.3643 48.5789Z" fill="#3F3F3F"/>
<path d="M88.8942 58.432C88.3885 58.9405 87.835 59.329 87.2338 59.5974C86.6461 59.8658 85.9833 60 85.2454 60C84.1794 60 83.339 59.7175 82.724 59.1524C82.1227 58.5874 81.8221 57.8457 81.8221 56.9275C81.8221 56.1788 82.0271 55.5361 82.437 54.9993C82.847 54.4484 83.4551 54.0175 84.2614 53.7067C85.0677 53.3818 86.0585 53.1841 87.2338 53.1134L88.8327 52.9863C88.9147 52.9722 88.9898 52.9439 89.0581 52.9015C89.1265 52.8592 89.1606 52.7815 89.1606 52.6684V52.0963C89.1606 51.3335 88.9283 50.7331 88.4637 50.2952C88.0127 49.8432 87.3977 49.6172 86.6188 49.6172C86.0175 49.6172 85.4709 49.7584 84.9789 50.041C84.5006 50.3235 84.0701 50.7473 83.6875 51.3123C83.6328 51.383 83.585 51.4324 83.544 51.4607C83.5166 51.4748 83.462 51.4677 83.38 51.4395L82.2731 51.0581C82.2321 51.0298 82.1979 50.9945 82.1706 50.9521C82.1569 50.9097 82.1774 50.832 82.2321 50.719C82.642 49.9845 83.216 49.4053 83.9539 48.9815C84.7056 48.5577 85.6212 48.3458 86.7008 48.3458C87.6164 48.3458 88.3748 48.4941 88.9761 48.7908C89.5911 49.0733 90.0489 49.49 90.3496 50.041C90.6639 50.5778 90.821 51.2205 90.821 51.9692V59.4703C90.821 59.5974 90.8005 59.6822 90.7595 59.7245C90.7185 59.7669 90.6502 59.7881 90.5546 59.7881H89.5091C89.4135 59.7881 89.3451 59.7599 89.3041 59.7033C89.2631 59.6327 89.2358 59.548 89.2221 59.4491L89.2016 58.4744C89.1606 58.2766 89.0581 58.2625 88.8942 58.432ZM89.1606 54.406C89.1606 54.1658 89.065 54.0528 88.8737 54.067L87.5207 54.1941C86.8921 54.2223 86.3318 54.3071 85.8398 54.4484C85.3479 54.5755 84.9311 54.745 84.5894 54.9569C84.2478 55.1688 83.9881 55.4231 83.8105 55.7197C83.6328 56.0023 83.544 56.3342 83.544 56.7156C83.544 57.3372 83.749 57.8245 84.1589 58.1777C84.5826 58.5167 85.1497 58.6863 85.8603 58.6863C86.2976 58.6863 86.7144 58.6086 87.1108 58.4532C87.5207 58.2837 87.876 58.0718 88.1767 57.8175C88.491 57.5491 88.7302 57.2736 88.8942 56.9911C89.0718 56.7086 89.1606 56.4331 89.1606 56.1647V54.406Z" fill="#3F3F3F"/>
<path d="M93.1344 59.7881C93.0387 59.7881 92.9635 59.7669 92.9089 59.7245C92.8679 59.668 92.8474 59.5974 92.8474 59.5126V48.8332C92.8474 48.6495 92.9225 48.5577 93.0729 48.5577H94.2618C94.4121 48.5577 94.4873 48.6354 94.4873 48.7908V50.1681C94.4873 50.2529 94.5078 50.3023 94.5488 50.3164C94.5898 50.3305 94.6444 50.3023 94.7128 50.2317C95.0681 49.7937 95.4165 49.4406 95.7582 49.1722C96.1135 48.8897 96.4688 48.6848 96.8241 48.5577C97.1794 48.4164 97.5348 48.3458 97.8901 48.3458C98.3684 48.3458 98.6075 48.4376 98.6075 48.6213V49.8926C98.6075 50.0339 98.546 50.0904 98.423 50.0621C98.3 50.048 98.1565 50.0339 97.9926 50.0198C97.8422 50.0056 97.6782 49.9986 97.5006 49.9986C97.1999 49.9986 96.8788 50.0692 96.5371 50.2105C96.1955 50.3376 95.8744 50.5213 95.5737 50.7614C95.2867 51.0015 95.0476 51.2699 94.8562 51.5666C94.6649 51.8633 94.5693 52.1599 94.5693 52.4566V59.4703C94.5693 59.6822 94.4668 59.7881 94.2618 59.7881H93.1344Z" fill="#3F3F3F"/>
<path d="M102.539 49.8926C102.43 49.8926 102.375 49.9491 102.375 50.0621V56.7792C102.375 57.4431 102.485 57.8881 102.703 58.1141C102.922 58.3402 103.25 58.4532 103.687 58.4532H105.102C105.17 58.4532 105.225 58.4744 105.266 58.5167C105.307 58.545 105.327 58.6015 105.327 58.6863L105.307 59.4067C105.307 59.548 105.225 59.6398 105.061 59.6822C104.924 59.7104 104.726 59.7316 104.466 59.7457C104.22 59.7599 103.974 59.774 103.728 59.7881C103.496 59.7881 103.298 59.7881 103.134 59.7881C102.273 59.7881 101.644 59.5833 101.248 59.1736C100.852 58.7498 100.654 58.0859 100.654 57.1818V50.1045C100.654 49.9633 100.585 49.8926 100.449 49.8926H98.8087C98.6583 49.8926 98.5832 49.8149 98.5832 49.6595V48.7696C98.5832 48.6283 98.6515 48.5577 98.7882 48.5577H100.531C100.626 48.5577 100.674 48.5012 100.674 48.3882L100.9 45.0191C100.913 44.8354 100.988 44.7436 101.125 44.7436H102.15C102.314 44.7436 102.396 44.8425 102.396 45.0402V48.3882C102.396 48.5012 102.451 48.5577 102.56 48.5577H105.143C105.293 48.5577 105.368 48.6213 105.368 48.7484V49.6595C105.368 49.8149 105.293 49.8926 105.143 49.8926H102.539Z" fill="#3F3F3F"/>
<path d="M106.859 59.7881C106.668 59.7881 106.572 59.6963 106.572 59.5126V48.8332C106.572 48.6495 106.647 48.5577 106.797 48.5577H108.027C108.178 48.5577 108.253 48.6354 108.253 48.7908V50.0198C108.253 50.0904 108.266 50.1328 108.294 50.1469C108.321 50.161 108.369 50.1398 108.437 50.0833C108.888 49.7161 109.305 49.4053 109.688 49.151C110.084 48.8826 110.487 48.6848 110.897 48.5577C111.307 48.4164 111.744 48.3458 112.209 48.3458C113.275 48.3458 114.088 48.6425 114.648 49.2358C115.222 49.8291 115.509 50.5989 115.509 51.5454V59.4491C115.509 59.6751 115.407 59.7881 115.202 59.7881H114.054C113.958 59.7881 113.89 59.7669 113.849 59.7245C113.808 59.668 113.787 59.5974 113.787 59.5126V51.948C113.787 51.2558 113.617 50.719 113.275 50.3376C112.933 49.9421 112.394 49.7443 111.656 49.7443C111.259 49.7443 110.884 49.8149 110.528 49.9562C110.187 50.0833 109.838 50.274 109.483 50.5283C109.127 50.7685 108.731 51.0792 108.294 51.4607V59.4703C108.294 59.6822 108.191 59.7881 107.986 59.7881H106.859Z" fill="#3F3F3F"/>
<path d="M118.666 54.8722C118.666 55.5643 118.823 56.2 119.137 56.7792C119.465 57.3443 119.896 57.7963 120.429 58.1353C120.975 58.4744 121.584 58.6439 122.253 58.6439C122.936 58.6439 123.545 58.5026 124.078 58.2201C124.611 57.9234 125.068 57.4785 125.451 56.8852C125.506 56.8286 125.547 56.8004 125.574 56.8004C125.615 56.7863 125.67 56.7933 125.738 56.8216L126.599 57.2666C126.722 57.3372 126.736 57.4361 126.64 57.5632C126.271 58.1283 125.861 58.5944 125.41 58.9617C124.973 59.3149 124.481 59.5762 123.934 59.7457C123.387 59.9152 122.772 60 122.089 60C121.078 60 120.183 59.7599 119.404 59.2796C118.625 58.7993 118.01 58.1283 117.559 57.2666C117.108 56.4049 116.882 55.409 116.882 54.2788C116.882 53.0499 117.108 51.9974 117.559 51.1216C118.024 50.2317 118.645 49.5465 119.424 49.0662C120.217 48.5859 121.098 48.3458 122.069 48.3458C123.066 48.3458 123.934 48.5718 124.672 49.0239C125.41 49.4759 125.984 50.1328 126.394 50.9945C126.804 51.8562 127.009 52.8945 127.009 54.1093C127.009 54.2082 126.995 54.3071 126.968 54.406C126.954 54.5049 126.865 54.5543 126.701 54.5543H118.85C118.796 54.5543 118.748 54.5896 118.707 54.6603C118.68 54.7168 118.666 54.7874 118.666 54.8722ZM124.939 53.3889C125.089 53.3889 125.184 53.3748 125.225 53.3465C125.266 53.3041 125.287 53.2194 125.287 53.0922C125.287 52.4848 125.157 51.9198 124.898 51.3971C124.652 50.8603 124.289 50.4294 123.811 50.1045C123.346 49.7796 122.779 49.6172 122.11 49.6172C121.372 49.6172 120.75 49.8008 120.244 50.1681C119.739 50.5213 119.356 50.9874 119.096 51.5666C118.837 52.1458 118.707 52.7532 118.707 53.3889H124.939Z" fill="#3F3F3F"/>
<path d="M128.691 59.7881C128.595 59.7881 128.52 59.7669 128.465 59.7245C128.424 59.668 128.404 59.5974 128.404 59.5126V48.8332C128.404 48.6495 128.479 48.5577 128.629 48.5577H129.818C129.969 48.5577 130.044 48.6354 130.044 48.7908V50.1681C130.044 50.2529 130.064 50.3023 130.105 50.3164C130.146 50.3305 130.201 50.3023 130.269 50.2317C130.625 49.7937 130.973 49.4406 131.315 49.1722C131.67 48.8897 132.025 48.6848 132.381 48.5577C132.736 48.4164 133.091 48.3458 133.447 48.3458C133.925 48.3458 134.164 48.4376 134.164 48.6213V49.8926C134.164 50.0339 134.103 50.0904 133.98 50.0621C133.857 50.048 133.713 50.0339 133.549 50.0198C133.399 50.0056 133.235 49.9986 133.057 49.9986C132.756 49.9986 132.435 50.0692 132.094 50.2105C131.752 50.3376 131.431 50.5213 131.13 50.7614C130.843 51.0015 130.604 51.2699 130.413 51.5666C130.221 51.8633 130.126 52.1599 130.126 52.4566V59.4703C130.126 59.6822 130.023 59.7881 129.818 59.7881H128.691Z" fill="#3F3F3F"/>
<path d="M141.545 51.0369C141.271 50.6131 140.889 50.267 140.397 49.9986C139.905 49.7302 139.317 49.596 138.634 49.596C137.896 49.596 137.281 49.7584 136.789 50.0833C136.311 50.4082 136.071 50.8462 136.071 51.3971C136.071 51.6937 136.181 51.9763 136.399 52.2447C136.618 52.4989 137.062 52.7391 137.732 52.9651L140.335 53.7703C141.278 54.0387 141.955 54.4272 142.365 54.9357C142.788 55.4443 143 56.0305 143 56.6944C143 57.3584 142.809 57.9376 142.426 58.432C142.043 58.9264 141.517 59.3149 140.848 59.5974C140.178 59.8658 139.42 60 138.572 60C137.493 60 136.55 59.781 135.743 59.3431C134.937 58.8911 134.363 58.3331 134.022 57.6692C133.981 57.5985 133.96 57.535 133.96 57.4785C133.96 57.4219 133.994 57.3725 134.063 57.3301L134.862 56.864C134.93 56.8216 134.992 56.8075 135.046 56.8216C135.101 56.8216 135.142 56.8428 135.169 56.8852C135.402 57.2524 135.668 57.5703 135.969 57.8387C136.283 58.1071 136.652 58.319 137.076 58.4744C137.513 58.6297 138.019 58.7074 138.593 58.7074C139.112 58.6933 139.584 58.6156 140.007 58.4744C140.431 58.3331 140.766 58.1283 141.012 57.8599C141.258 57.5773 141.381 57.2524 141.381 56.8852C141.381 56.5037 141.23 56.1788 140.93 55.9104C140.629 55.6279 140.11 55.3807 139.372 55.1688L137.26 54.5543C136.235 54.2718 135.511 53.8904 135.087 53.4101C134.678 52.9298 134.466 52.3647 134.452 51.7149C134.452 51.0369 134.63 50.4506 134.985 49.9562C135.34 49.4477 135.832 49.0521 136.461 48.7696C137.103 48.4871 137.834 48.3458 138.654 48.3458C139.57 48.3458 140.383 48.5294 141.094 48.8967C141.818 49.2499 142.365 49.7231 142.734 50.3164C142.775 50.3729 142.795 50.4294 142.795 50.4859C142.795 50.5283 142.768 50.5707 142.713 50.6131L141.852 51.1004C141.797 51.1287 141.743 51.1428 141.688 51.1428C141.647 51.1287 141.599 51.0934 141.545 51.0369Z" fill="#3F3F3F"/>
</svg>
